<?xml version="1.0" encoding="utf-8"?>
<!-- Generator: Adobe Illustrator 15.1.0, SVG Export Plug-In  -->
<!DOCTYPE svg PUBLIC "-//W3C//DTD SVG 1.1//EN" "http://www.w3.org/Graphics/SVG/1.1/DTD/svg11.dtd" [
	<!ENTITY ns_flows "http://ns.adobe.com/Flows/1.0/">
]>
<svg version="1.1"
	 xmlns="http://www.w3.org/2000/svg" xmlns:xlink="http://www.w3.org/1999/xlink" xmlns:a="http://ns.adobe.com/AdobeSVGViewerExtensions/3.0/"
	 x="0px" y="0px" width="760px" height="267px" viewBox="0 0.001 760 267" enable-background="new 0 0.001 760 267"
	 xml:space="preserve">
<defs>
</defs>
<g>
	<defs>
		<rect id="SVGID_1_" x="0" y="0.001" width="760" height="266.651"/>
	</defs>
	<clipPath id="SVGID_2_">
		<use xlink:href="#SVGID_1_"  overflow="visible"/>
	</clipPath>
	<path clip-path="url(#SVGID_2_)" fill="#71B7D9" d="M315.282,115.511c0,24.213-19.629,43.842-43.842,43.842
		c-24.213,0-43.842-19.629-43.842-43.842s19.629-43.842,43.842-43.842C295.653,71.669,315.282,91.298,315.282,115.511"/>
	<path clip-path="url(#SVGID_2_)" fill="#CEE7F2" d="M270.689,168.217c-28.419,0-51.54-23.66-51.54-52.741
		c0-29.082,23.121-52.742,51.54-52.742c28.42,0,51.541,23.66,51.541,52.742C322.23,144.557,299.109,168.217,270.689,168.217
		 M270.689,65.239c-27.038,0-49.035,22.536-49.035,50.237c0,27.7,21.997,50.236,49.035,50.236c27.039,0,49.036-22.536,49.036-50.236
		C319.726,87.775,297.729,65.239,270.689,65.239"/>
	<path clip-path="url(#SVGID_2_)" fill="#CEE7F2" d="M315.286,56.638c-2.763,0-5.011-2.248-5.011-5.011
		c0-2.762,2.248-5.01,5.011-5.01s5.01,2.248,5.01,5.01C320.296,54.39,318.049,56.638,315.286,56.638 M315.286,49.122
		c-1.381,0-2.505,1.124-2.505,2.505c0,1.382,1.124,2.506,2.505,2.506s2.505-1.124,2.505-2.506
		C317.791,50.246,316.667,49.122,315.286,49.122"/>
	<path clip-path="url(#SVGID_2_)" fill="#CEE7F2" d="M394.202,75.428c-2.764,0-5.011-2.247-5.011-5.011
		c0-2.763,2.247-5.01,5.011-5.01c2.763,0,5.01,2.247,5.01,5.01C399.211,73.181,396.964,75.428,394.202,75.428 M394.202,67.912
		c-1.381,0-2.506,1.124-2.506,2.505c0,1.381,1.125,2.506,2.506,2.506s2.505-1.125,2.505-2.506
		C396.707,69.036,395.583,67.912,394.202,67.912"/>
	<path clip-path="url(#SVGID_2_)" fill="#CEE7F2" d="M57.827,138.661c-3.798,0-6.889-3.091-6.889-6.889
		c0-3.799,3.091-6.89,6.889-6.89s6.89,3.091,6.89,6.89C64.717,135.57,61.625,138.661,57.827,138.661 M57.827,127.386
		c-2.417,0-4.384,1.968-4.384,4.385s1.967,4.384,4.384,4.384s4.384-1.967,4.384-4.384S60.244,127.386,57.827,127.386"/>
	<path clip-path="url(#SVGID_2_)" fill="#CEE7F2" d="M616.77,66.203c0-1.579,1.279-2.859,2.857-2.859c1.579,0,2.86,1.28,2.86,2.859
		c0,1.579-1.281,2.859-2.86,2.859C618.049,69.063,616.77,67.782,616.77,66.203"/>
	<path clip-path="url(#SVGID_2_)" fill="#CEE7F2" d="M616.77,53.209c0-1.579,1.279-2.859,2.857-2.859c1.579,0,2.86,1.28,2.86,2.859
		c0,1.579-1.281,2.859-2.86,2.859C618.049,56.068,616.77,54.788,616.77,53.209"/>
	<path clip-path="url(#SVGID_2_)" fill="#CEE7F2" d="M616.77,40.215c0-1.579,1.279-2.859,2.857-2.859c1.579,0,2.86,1.28,2.86,2.859
		c0,1.579-1.281,2.859-2.86,2.859C618.049,43.074,616.77,41.794,616.77,40.215"/>
	<path clip-path="url(#SVGID_2_)" fill="#CEE7F2" d="M96.788,173.052H46.992v-12.697h49.796V173.052z M49.497,170.545h44.786v-7.687
		H49.497V170.545z"/>
	<rect x="48.245" y="184.058" clip-path="url(#SVGID_2_)" fill="#CEE7F2" width="12.23" height="2.505"/>
	<rect x="66.182" y="184.058" clip-path="url(#SVGID_2_)" fill="#CEE7F2" width="12.23" height="2.505"/>
	<rect x="84.12" y="184.058" clip-path="url(#SVGID_2_)" fill="#CEE7F2" width="12.23" height="2.505"/>
	<rect x="48.245" y="193.027" clip-path="url(#SVGID_2_)" fill="#CEE7F2" width="12.23" height="2.506"/>
	<rect x="66.182" y="193.027" clip-path="url(#SVGID_2_)" fill="#CEE7F2" width="12.23" height="2.506"/>
	<rect x="84.12" y="193.027" clip-path="url(#SVGID_2_)" fill="#CEE7F2" width="12.23" height="2.506"/>
	<rect x="48.245" y="201.996" clip-path="url(#SVGID_2_)" fill="#CEE7F2" width="12.23" height="2.506"/>
	<rect x="66.182" y="201.996" clip-path="url(#SVGID_2_)" fill="#CEE7F2" width="12.23" height="2.506"/>
	<rect x="84.12" y="201.996" clip-path="url(#SVGID_2_)" fill="#CEE7F2" width="12.23" height="2.506"/>
	<rect x="72.296" y="242.632" clip-path="url(#SVGID_2_)" fill="#CEE7F2" width="3.499" height="3.497"/>
	<rect x="72.296" y="236.187" clip-path="url(#SVGID_2_)" fill="#CEE7F2" width="3.499" height="3.498"/>
	<rect x="72.296" y="229.742" clip-path="url(#SVGID_2_)" fill="#CEE7F2" width="3.499" height="3.499"/>
	<rect x="7.516" y="260.333" clip-path="url(#SVGID_2_)" fill="#1C88C0" width="744.969" height="2.505"/>
	<path clip-path="url(#SVGID_2_)" fill="#FFFFFF" d="M1.253,259.135c0-3.459,2.804-6.263,6.263-6.263s6.263,2.804,6.263,6.263
		s-2.804,6.265-6.263,6.265S1.253,262.594,1.253,259.135"/>
	<path clip-path="url(#SVGID_2_)" fill="#1C88C0" d="M7.516,266.652c-4.145,0-7.516-3.371-7.516-7.516s3.371-7.516,7.516-7.516
		s7.516,3.371,7.516,7.516S11.661,266.652,7.516,266.652 M7.516,254.125c-2.763,0-5.01,2.247-5.01,5.011
		c0,2.763,2.247,5.011,5.01,5.011c2.764,0,5.011-2.248,5.011-5.011C12.527,256.373,10.28,254.125,7.516,254.125"/>
	<path clip-path="url(#SVGID_2_)" fill="#FFFFFF" d="M746.221,259.135c0-3.459,2.805-6.263,6.264-6.263s6.263,2.804,6.263,6.263
		s-2.804,6.265-6.263,6.265S746.221,262.594,746.221,259.135"/>
	<path clip-path="url(#SVGID_2_)" fill="#1C88C0" d="M752.485,266.652c-4.145,0-7.516-3.371-7.516-7.516s3.371-7.516,7.516-7.516
		s7.516,3.371,7.516,7.516S756.629,266.652,752.485,266.652 M752.485,254.125c-2.764,0-5.011,2.247-5.011,5.011
		c0,2.763,2.247,5.011,5.011,5.011c2.763,0,5.011-2.248,5.011-5.011C757.496,256.373,755.248,254.125,752.485,254.125"/>
	<rect x="565.965" y="25.8" clip-path="url(#SVGID_2_)" fill="#9ECEE5" width="36.463" height="102.662"/>
	<path clip-path="url(#SVGID_2_)" fill="#1C88C0" d="M603.68,129.714h-38.968V24.547h38.968V129.714z M567.217,127.209h33.958
		V27.052h-33.958V127.209z"/>
	<rect x="572.042" y="31.878" clip-path="url(#SVGID_2_)" fill="#D9D9E2" width="24.31" height="90.506"/>
	<path clip-path="url(#SVGID_2_)" fill="#1C88C0" d="M597.604,123.637h-26.813V30.626h26.813V123.637z M573.294,121.131h21.804v-88
		h-21.804V121.131z"/>
	<path clip-path="url(#SVGID_2_)" fill="#FFFFFF" d="M598.883,77.13c0,6.571-6.575,11.898-14.688,11.898
		c-8.11,0-14.686-5.327-14.686-11.898c0-6.571,6.575-11.898,14.686-11.898C592.308,65.232,598.883,70.56,598.883,77.13"/>
	<path clip-path="url(#SVGID_2_)" fill="#1C88C0" d="M584.197,90.282c-8.789,0-15.939-5.901-15.939-13.152
		s7.15-13.151,15.939-13.151s15.938,5.9,15.938,13.151S592.986,90.282,584.197,90.282 M584.197,66.484
		c-7.407,0-13.435,4.776-13.435,10.646c0,5.871,6.027,10.646,13.435,10.646c7.406,0,13.434-4.775,13.434-10.646
		C597.63,71.26,591.603,66.484,584.197,66.484"/>
	<path clip-path="url(#SVGID_2_)" fill="#1C88C0" d="M579.71,73.819c-0.834,0.908-1.3,1.669-1.3,2.846
		c0,1.324,0.688,2.133,1.962,2.133c2.942,0,2.354-6.67,7.308-6.67c2.33,0,4.046,1.374,4.489,3.8h2.521v1.961h-2.449
		c-0.147,1.498-0.833,3.139-1.863,4.244l-1.914-1.275c0.908-1.153,1.519-2.307,1.519-3.63c0-1.594-0.783-2.379-2.106-2.379
		c-3.236,0-2.77,6.67-7.382,6.67c-2.28,0-3.899-1.422-4.291-3.63h-2.501v-1.961h2.453c0.195-1.569,0.955-2.648,1.912-3.555
		L579.71,73.819z"/>
	<path clip-path="url(#SVGID_2_)" fill="#FFFFFF" d="M587,49.016c0,2.017-1.636,3.652-3.652,3.652s-3.652-1.635-3.652-3.652
		s1.636-3.652,3.652-3.652S587,46.999,587,49.016"/>
	<path clip-path="url(#SVGID_2_)" fill="#1C88C0" d="M583.347,53.921c-2.704,0-4.905-2.2-4.905-4.905
		c0-2.704,2.201-4.904,4.905-4.904c2.705,0,4.904,2.2,4.904,4.904C588.251,51.721,586.052,53.921,583.347,53.921 M583.347,46.617
		c-1.323,0-2.399,1.077-2.399,2.399c0,1.324,1.076,2.4,2.399,2.4c1.322,0,2.399-1.076,2.399-2.4
		C585.747,47.694,584.669,46.617,583.347,46.617"/>
	<path clip-path="url(#SVGID_2_)" fill="#FFFFFF" d="M587,103.863c0,2.017-1.636,3.651-3.652,3.651s-3.652-1.634-3.652-3.651
		c0-2.018,1.636-3.652,3.652-3.652S587,101.845,587,103.863"/>
	<path clip-path="url(#SVGID_2_)" fill="#43566B" d="M583.347,108.768c-2.704,0-4.905-2.2-4.905-4.906
		c0-2.704,2.201-4.904,4.905-4.904c2.705,0,4.904,2.2,4.904,4.904C588.251,106.567,586.052,108.768,583.347,108.768
		 M583.347,101.463c-1.323,0-2.399,1.076-2.399,2.398c0,1.324,1.076,2.401,2.399,2.401c1.322,0,2.399-1.077,2.399-2.401
		C585.747,102.54,584.669,101.463,583.347,101.463"/>
	<rect x="523.644" y="41.381" clip-path="url(#SVGID_2_)" fill="#9ECEE5" width="36.465" height="102.661"/>
	<path clip-path="url(#SVGID_2_)" fill="#1C88C0" d="M561.361,145.294h-38.97V40.128h38.97V145.294z M524.897,142.789h33.957V42.633
		h-33.957V142.789z"/>
	<rect x="529.722" y="47.458" clip-path="url(#SVGID_2_)" fill="#D9D9E2" width="24.31" height="90.504"/>
	<path clip-path="url(#SVGID_2_)" fill="#1C88C0" d="M555.284,139.217h-26.814V46.206h26.814V139.217z M530.975,136.711h21.804v-88
		h-21.804V136.711z"/>
	<path clip-path="url(#SVGID_2_)" fill="#FFFFFF" d="M556.563,92.711c0,6.571-6.575,11.898-14.688,11.898
		c-8.109,0-14.686-5.327-14.686-11.898c0-6.572,6.576-11.899,14.686-11.899C549.988,80.813,556.563,86.14,556.563,92.711"/>
	<path clip-path="url(#SVGID_2_)" fill="#1C88C0" d="M541.876,105.862c-8.789,0-15.939-5.9-15.939-13.151
		c0-7.251,7.15-13.152,15.939-13.152s15.938,5.901,15.938,13.152C557.815,99.962,550.666,105.862,541.876,105.862 M541.876,82.065
		c-7.407,0-13.434,4.775-13.434,10.646c0,5.871,6.026,10.646,13.434,10.646s13.434-4.775,13.434-10.646
		C555.31,86.84,549.284,82.065,541.876,82.065"/>
	<path clip-path="url(#SVGID_2_)" fill="#1C88C0" d="M537.39,89.4c-0.834,0.907-1.3,1.668-1.3,2.846
		c0,1.323,0.688,2.132,1.962,2.132c2.941,0,2.354-6.67,7.308-6.67c2.33,0,4.047,1.375,4.489,3.8h2.521v1.962h-2.449
		c-0.146,1.497-0.833,3.139-1.863,4.244l-1.913-1.276c0.907-1.153,1.518-2.306,1.518-3.63c0-1.593-0.782-2.378-2.106-2.378
		c-3.236,0-2.771,6.67-7.381,6.67c-2.281,0-3.899-1.423-4.292-3.63h-2.501v-1.962h2.453c0.196-1.569,0.954-2.647,1.911-3.554
		L537.39,89.4z"/>
	<path clip-path="url(#SVGID_2_)" fill="#FFFFFF" d="M544.679,64.597c0,2.017-1.635,3.652-3.652,3.652
		c-2.017,0-3.651-1.635-3.651-3.652c0-2.017,1.635-3.652,3.651-3.652C543.044,60.945,544.679,62.58,544.679,64.597"/>
	<path clip-path="url(#SVGID_2_)" fill="#1C88C0" d="M541.028,69.502c-2.705,0-4.905-2.2-4.905-4.906c0-2.704,2.2-4.903,4.905-4.903
		c2.704,0,4.903,2.199,4.903,4.903C545.931,67.302,543.732,69.502,541.028,69.502 M541.028,62.198c-1.324,0-2.4,1.076-2.4,2.398
		c0,1.324,1.076,2.401,2.4,2.401c1.322,0,2.397-1.077,2.397-2.401C543.425,63.274,542.35,62.198,541.028,62.198"/>
	<path clip-path="url(#SVGID_2_)" fill="#FFFFFF" d="M544.679,119.443c0,2.018-1.635,3.652-3.652,3.652
		c-2.017,0-3.651-1.634-3.651-3.652c0-2.017,1.635-3.651,3.651-3.651C543.044,115.792,544.679,117.426,544.679,119.443"/>
	<path clip-path="url(#SVGID_2_)" fill="#43566B" d="M541.028,124.349c-2.705,0-4.905-2.201-4.905-4.906
		c0-2.705,2.2-4.904,4.905-4.904c2.704,0,4.903,2.199,4.903,4.904C545.931,122.147,543.732,124.349,541.028,124.349
		 M541.028,117.043c-1.324,0-2.4,1.077-2.4,2.399c0,1.324,1.076,2.401,2.4,2.401c1.322,0,2.397-1.077,2.397-2.401
		C543.425,118.121,542.35,117.043,541.028,117.043"/>
	<path clip-path="url(#SVGID_2_)" fill="#1C88C0" d="M148.814,146.827h-2.505v-2.505h2.505V146.827z M148.814,141.816h-2.505v-2.505
		h2.505V141.816z M148.814,136.806h-2.505V134.3h2.505V136.806z M148.814,131.796h-2.505v-2.506h2.505V131.796z M148.814,126.785
		h-2.505v-2.505h2.505V126.785z M148.814,121.774h-2.505v-2.505h2.505V121.774z M148.814,116.764h-2.505v-2.506h2.505V116.764z
		 M148.814,111.754h-2.505v-2.506h2.505V111.754z M148.814,106.743h-2.505v-2.505h2.505V106.743z M148.814,101.732h-2.505v-2.505
		h2.505V101.732z M148.814,96.722h-2.505v-2.506h2.505V96.722z M148.814,91.712h-2.505v-2.506h2.505V91.712z M148.814,86.701h-2.505
		v-2.505h2.505V86.701z M148.814,81.69h-2.505v-2.505h2.505V81.69z M148.814,76.68h-2.505v-2.506h2.505V76.68z M148.814,71.67
		h-2.505v-2.505h2.505V71.67z M148.814,66.659h-2.505v-2.505h2.505V66.659z M148.814,61.649h-2.505v-2.505h2.505V61.649z
		 M148.814,56.638h-2.505v-2.505h2.505V56.638z M148.814,51.628h-2.505v-2.505h2.505V51.628z M148.814,46.617h-2.505v-2.505h2.505
		V46.617z M148.814,41.607h-2.505v-2.505h2.505V41.607z M146.309,36.596v-0.104h2.505L146.309,36.596z"/>
	<path clip-path="url(#SVGID_2_)" fill="#1C88C0" d="M270.691,160.076c-23.931,0-43.399-20.008-43.399-44.599
		c0-24.593,19.468-44.601,43.399-44.601c23.929,0,43.397,20.008,43.397,44.601C314.088,140.068,294.62,160.076,270.691,160.076
		 M270.691,73.38c-22.549,0-40.894,18.884-40.894,42.096c0,23.211,18.345,42.094,40.894,42.094
		c22.548,0,40.893-18.883,40.893-42.094C311.584,92.265,293.239,73.38,270.691,73.38"/>
	<rect x="269.438" y="72.129" clip-path="url(#SVGID_2_)" fill="#1C88C0" width="2.505" height="86.694"/>
	<path clip-path="url(#SVGID_2_)" fill="#1C88C0" d="M267.081,159.347c-14.886-27.305-15.19-60.076-0.816-87.666l2.221,1.157
		c-13.988,26.849-13.692,58.739,0.794,85.31L267.081,159.347z"/>
	<path clip-path="url(#SVGID_2_)" fill="#1C88C0" d="M274.387,159.34l-2.199-1.198c14.481-26.567,14.778-58.453,0.795-85.295
		l2.221-1.157C289.574,99.274,289.268,132.04,274.387,159.34"/>
	<rect x="228.543" y="114.223" clip-path="url(#SVGID_2_)" fill="#1C88C0" width="84.292" height="2.505"/>
	<path clip-path="url(#SVGID_2_)" fill="#1C88C0" d="M270.691,108.465c-13.56,0-27.121-1.478-40.587-4.434l0.538-2.446
		c26.574,5.833,53.525,5.833,80.096,0l0.538,2.446C297.811,106.987,284.251,108.465,270.691,108.465"/>
	<path clip-path="url(#SVGID_2_)" fill="#1C88C0" d="M310.619,129.766c-26.498-5.797-53.365-5.797-79.858,0l-0.536-2.446
		c26.85-5.876,54.078-5.877,80.93,0L310.619,129.766z"/>
	<path clip-path="url(#SVGID_2_)" fill="#1C88C0" d="M270.691,90.024c-9.259,0-18.514-2.495-26.772-7.487l1.296-2.143
		c15.717,9.501,35.241,9.498,50.955-0.003l1.297,2.144C289.21,87.528,279.948,90.024,270.691,90.024"/>
	<path clip-path="url(#SVGID_2_)" fill="#1C88C0" d="M243.555,149.079l-1.38-2.089c17.32-11.441,39.706-11.44,57.026-0.004
		l-1.38,2.092C281.339,138.193,260.039,138.193,243.555,149.079"/>
	<path clip-path="url(#SVGID_2_)" fill="#1C88C0" d="M261.587,159.006c-14.561-9.482-23.253-25.758-23.253-43.53
		c0-17.774,8.692-34.048,23.253-43.532l1.368,2.099c-13.848,9.021-22.116,24.51-22.116,41.433c0,16.922,8.268,32.411,22.116,41.431
		L261.587,159.006z"/>
	<path clip-path="url(#SVGID_2_)" fill="#1C88C0" d="M279.794,159.006l-1.368-2.099c13.893-9.049,22.16-24.589,22.113-41.57
		c-0.045-16.973-8.396-32.466-22.339-41.441l1.355-2.107c14.661,9.439,23.442,25.715,23.489,43.541
		C303.093,133.165,294.401,149.491,279.794,159.006"/>
	<rect x="577.681" y="163.265" clip-path="url(#SVGID_2_)" fill="#9ECEE5" width="113.221" height="98.321"/>
	<path clip-path="url(#SVGID_2_)" fill="#1C88C0" d="M692.155,262.838H576.428V162.012h115.727V262.838z M578.934,260.333H689.65
		v-95.816H578.934V260.333z"/>
	<rect x="664.086" y="163.265" clip-path="url(#SVGID_2_)" fill="#1C88C0" width="26.815" height="98.321"/>
	<path clip-path="url(#SVGID_2_)" fill="#1C88C0" d="M692.155,262.838h-29.32V162.012h29.32V262.838z M665.339,260.333h24.311
		v-95.816h-24.311V260.333z"/>
	<line clip-path="url(#SVGID_2_)" fill="#1C88C0" x1="586.621" y1="175.182" x2="655.148" y2="175.182"/>
	<rect x="586.62" y="173.929" clip-path="url(#SVGID_2_)" fill="#1C88C0" width="1.253" height="2.506"/>
	<path clip-path="url(#SVGID_2_)" fill="#1C88C0" d="M652.625,176.435h-2.538v-2.506h2.538V176.435z M648.817,176.435h-2.54v-2.506
		h2.54V176.435z M645.007,176.435h-2.539v-2.506h2.539V176.435z M641.198,176.435h-2.539v-2.506h2.539V176.435z M637.389,176.435
		h-2.54v-2.506h2.54V176.435z M633.58,176.435h-2.538v-2.506h2.538V176.435z M629.772,176.435h-2.54v-2.506h2.54V176.435z
		 M625.962,176.435h-2.539v-2.506h2.539V176.435z M622.153,176.435h-2.539v-2.506h2.539V176.435z M618.344,176.435h-2.54v-2.506
		h2.54V176.435z M614.536,176.435h-2.539v-2.506h2.539V176.435z M610.727,176.435h-2.539v-2.506h2.539V176.435z M606.917,176.435
		h-2.54v-2.506h2.54V176.435z M603.108,176.435h-2.539v-2.506h2.539V176.435z M599.299,176.435h-2.539v-2.506h2.539V176.435z
		 M595.491,176.435h-2.539v-2.506h2.539V176.435z M591.681,176.435h-2.539v-2.506h2.539V176.435z"/>
	<rect x="653.893" y="173.929" clip-path="url(#SVGID_2_)" fill="#1C88C0" width="1.254" height="2.506"/>
	<line clip-path="url(#SVGID_2_)" fill="#1C88C0" x1="586.621" y1="249.668" x2="655.148" y2="249.668"/>
	<rect x="586.62" y="248.416" clip-path="url(#SVGID_2_)" fill="#1C88C0" width="1.253" height="2.505"/>
	<path clip-path="url(#SVGID_2_)" fill="#1C88C0" d="M652.625,250.92h-2.538v-2.505h2.538V250.92z M648.817,250.92h-2.54v-2.505
		h2.54V250.92z M645.007,250.92h-2.539v-2.505h2.539V250.92z M641.198,250.92h-2.539v-2.505h2.539V250.92z M637.389,250.92h-2.54
		v-2.505h2.54V250.92z M633.58,250.92h-2.538v-2.505h2.538V250.92z M629.772,250.92h-2.54v-2.505h2.54V250.92z M625.962,250.92
		h-2.539v-2.505h2.539V250.92z M622.153,250.92h-2.539v-2.505h2.539V250.92z M618.344,250.92h-2.54v-2.505h2.54V250.92z
		 M614.536,250.92h-2.539v-2.505h2.539V250.92z M610.727,250.92h-2.539v-2.505h2.539V250.92z M606.917,250.92h-2.54v-2.505h2.54
		V250.92z M603.108,250.92h-2.539v-2.505h2.539V250.92z M599.299,250.92h-2.539v-2.505h2.539V250.92z M595.491,250.92h-2.539v-2.505
		h2.539V250.92z M591.681,250.92h-2.539v-2.505h2.539V250.92z"/>
	<rect x="653.893" y="248.416" clip-path="url(#SVGID_2_)" fill="#1C88C0" width="1.254" height="2.505"/>
	<path clip-path="url(#SVGID_2_)" fill="#1C88C0" d="M706.441,222.3h-28.1c-2.924,0-5.316-2.393-5.316-5.316v-18.52h33.416
		c2.924,0,5.316,2.394,5.316,5.316v13.203C711.757,219.908,709.365,222.3,706.441,222.3"/>
	<path clip-path="url(#SVGID_2_)" fill="#1C88C0" d="M706.441,223.552H678.34c-3.621,0-6.568-2.945-6.568-6.567v-19.773h34.669
		c3.622,0,6.569,2.947,6.569,6.569v13.204C713.01,220.607,710.063,223.552,706.441,223.552 M674.278,199.717v17.268
		c0,2.239,1.822,4.063,4.063,4.063h28.101c2.241,0,4.063-1.823,4.063-4.063v-13.204c0-2.241-1.822-4.063-4.063-4.063H674.278z"/>
	<path clip-path="url(#SVGID_2_)" fill="#FFFFFF" d="M693.123,210.659c-0.153-2.676,1.892-4.968,4.567-5.121
		c2.676-0.152,4.969,1.893,5.121,4.567c0.153,2.676-1.892,4.969-4.567,5.121C695.568,215.379,693.275,213.334,693.123,210.659"/>
	<path clip-path="url(#SVGID_2_)" fill="#F79E87" d="M159.178,150.858v107.468c0,1.802-1.46,3.262-3.261,3.262H91.874
		c-1.801,0-3.26-1.46-3.26-3.262V150.858c0-1.801,1.459-3.261,3.26-3.261h64.043C157.718,147.597,159.178,149.057,159.178,150.858"
		/>
	<path clip-path="url(#SVGID_2_)" fill="#1C88C0" d="M155.918,262.838H91.874c-2.488,0-4.513-2.024-4.513-4.512v-107.47
		c0-2.486,2.025-4.513,4.513-4.513h64.044c2.488,0,4.513,2.026,4.513,4.513v107.47C160.431,260.814,158.406,262.838,155.918,262.838
		 M91.874,148.85c-1.107,0-2.008,0.9-2.008,2.007v107.47c0,1.106,0.901,2.007,2.008,2.007h64.044c1.107,0,2.007-0.9,2.007-2.007
		v-107.47c0-1.106-0.9-2.007-2.007-2.007H91.874z"/>
	<rect x="104.767" y="147.598" clip-path="url(#SVGID_2_)" fill="#FFFFFF" width="10.856" height="113.988"/>
	<path clip-path="url(#SVGID_2_)" fill="#1C88C0" d="M116.875,262.838h-13.362V146.345h13.362V262.838z M106.019,260.333h8.351
		V148.851h-8.351V260.333z"/>
	<line clip-path="url(#SVGID_2_)" fill="#FFFFFF" x1="126.216" y1="206.964" x2="126.216" y2="168.333"/>
	<rect x="124.963" y="168.333" clip-path="url(#SVGID_2_)" fill="#1C88C0" width="2.505" height="38.634"/>
	<line clip-path="url(#SVGID_2_)" fill="#FFFFFF" x1="126.216" y1="253.603" x2="126.216" y2="212.162"/>
	<rect x="124.963" y="212.162" clip-path="url(#SVGID_2_)" fill="#1C88C0" width="2.505" height="41.441"/>
	<line clip-path="url(#SVGID_2_)" fill="#FFFFFF" x1="135.522" y1="253.603" x2="135.522" y2="224.364"/>
	<rect x="134.27" y="224.364" clip-path="url(#SVGID_2_)" fill="#1C88C0" width="2.505" height="29.239"/>
	<line clip-path="url(#SVGID_2_)" fill="#FFFFFF" x1="135.522" y1="220.939" x2="135.522" y2="204.959"/>
	<rect x="134.27" y="204.958" clip-path="url(#SVGID_2_)" fill="#1C88C0" width="2.505" height="15.979"/>
	<line clip-path="url(#SVGID_2_)" fill="#FFFFFF" x1="135.522" y1="201.726" x2="135.522" y2="185.747"/>
	<rect x="134.27" y="185.745" clip-path="url(#SVGID_2_)" fill="#1C88C0" width="2.505" height="15.98"/>
	<polygon clip-path="url(#SVGID_2_)" fill="#CEE7F2" points="507.171,94.974 507.171,261.586 633.161,261.586 633.161,102.628 
		618.63,94.974 	"/>
	<path clip-path="url(#SVGID_2_)" fill="#1C88C0" d="M633.162,262.838h-125.99c-0.692,0-1.253-0.56-1.253-1.252V94.975
		c0-0.693,0.561-1.253,1.253-1.253H618.63c0.203,0,0.403,0.05,0.583,0.144l14.531,7.656c0.412,0.215,0.669,0.643,0.669,1.108
		v158.957C634.414,262.279,633.854,262.838,633.162,262.838 M508.423,260.333h123.485V103.386l-13.588-7.159H508.423V260.333z"/>
	<polygon clip-path="url(#SVGID_2_)" fill="#FFFFFF" points="618.63,94.974 633.161,102.628 621.083,106.269 	"/>
	<path clip-path="url(#SVGID_2_)" fill="#1C88C0" d="M621.083,107.521c-0.222,0-0.441-0.059-0.637-0.174
		c-0.3-0.178-0.513-0.473-0.588-0.814l-2.453-11.295c-0.102-0.475,0.079-0.967,0.467-1.261c0.387-0.295,0.911-0.338,1.342-0.112
		l14.531,7.656c0.451,0.237,0.712,0.722,0.663,1.227c-0.049,0.507-0.398,0.934-0.886,1.079l-12.078,3.64
		C621.327,107.503,621.204,107.521,621.083,107.521 M620.424,97.334l1.596,7.344l7.852-2.366L620.424,97.334z"/>
	<rect x="522.666" y="177.979" clip-path="url(#SVGID_2_)" fill="#FFFFFF" width="5.902" height="17.741"/>
	<path clip-path="url(#SVGID_2_)" fill="#43566B" d="M529.821,196.972h-8.408v-20.246h8.408V196.972z M523.917,194.467h3.398
		v-15.235h-3.398V194.467z"/>
	<rect x="537.421" y="164.673" clip-path="url(#SVGID_2_)" fill="#FFFFFF" width="5.902" height="31.047"/>
	<path clip-path="url(#SVGID_2_)" fill="#1C88C0" d="M544.577,196.972h-8.408v-33.553h8.408V196.972z M538.674,194.467h3.396
		v-28.541h-3.396V194.467z"/>
	<rect x="552.178" y="146.932" clip-path="url(#SVGID_2_)" fill="#FFFFFF" width="5.902" height="48.788"/>
	<path clip-path="url(#SVGID_2_)" fill="#1C88C0" d="M559.333,196.972h-8.408v-51.293h8.408V196.972z M553.43,194.467h3.398v-46.281
		h-3.398V194.467z"/>
	<rect x="566.934" y="138.062" clip-path="url(#SVGID_2_)" fill="#FFFFFF" width="5.902" height="57.658"/>
	<path clip-path="url(#SVGID_2_)" fill="#1C88C0" d="M574.09,196.972h-8.409v-60.164h8.409V196.972z M568.186,194.467h3.398v-55.152
		h-3.398V194.467z"/>
	<rect x="581.691" y="124.756" clip-path="url(#SVGID_2_)" fill="#FFFFFF" width="5.901" height="70.964"/>
	<path clip-path="url(#SVGID_2_)" fill="#1C88C0" d="M588.845,196.972h-8.408v-73.47h8.408V196.972z M582.943,194.467h3.396v-68.458
		h-3.396V194.467z"/>
	<rect x="596.448" y="131.26" clip-path="url(#SVGID_2_)" fill="#FFFFFF" width="5.901" height="64.46"/>
	<path clip-path="url(#SVGID_2_)" fill="#1C88C0" d="M603.601,196.972h-8.406v-66.965h8.406V196.972z M597.699,194.467h3.396
		v-61.955h-3.396V194.467z"/>
	<rect x="611.203" y="117.954" clip-path="url(#SVGID_2_)" fill="#FFFFFF" width="5.901" height="77.767"/>
	<path clip-path="url(#SVGID_2_)" fill="#1C88C0" d="M618.359,196.972h-8.409v-80.271h8.409V196.972z M612.456,194.467h3.396v-75.26
		h-3.396V194.467z"/>
	<line clip-path="url(#SVGID_2_)" fill="#FFFFFF" x1="619.582" y1="204.752" x2="520.189" y2="204.752"/>
	<rect x="520.188" y="203.5" clip-path="url(#SVGID_2_)" fill="#1C88C0" width="99.394" height="2.505"/>
	<path clip-path="url(#SVGID_2_)" fill="#1C88C0" d="M617.216,227.724h-2.506v-2.506h2.506V227.724z M612.206,227.724h-28.811
		v-2.506h28.811V227.724z M580.89,227.724h-2.506v-2.506h2.506V227.724z M549.575,227.724h-2.506v-2.506h2.506V227.724z
		 M544.563,227.724h-22.009v-2.506h22.009V227.724z"/>
	<path clip-path="url(#SVGID_2_)" fill="#1C88C0" d="M617.216,238.713h-2.506v-2.505h2.506V238.713z M612.206,238.713h-28.811
		v-2.505h28.811V238.713z M580.89,238.713h-2.506v-2.505h2.506V238.713z M549.575,238.713h-2.506v-2.505h2.506V238.713z
		 M544.563,238.713h-22.009v-2.505h22.009V238.713z"/>
	<path clip-path="url(#SVGID_2_)" fill="#1C88C0" d="M617.216,249.705h-2.506V247.2h2.506V249.705z M612.206,249.705h-28.811V247.2
		h28.811V249.705z M580.89,249.705h-2.506V247.2h2.506V249.705z M549.575,249.705h-2.506V247.2h2.506V249.705z M544.563,249.705
		h-22.009V247.2h22.009V249.705z"/>
	<rect x="523.992" y="226.24" clip-path="url(#SVGID_2_)" fill="#FFFFFF" width="24.475" height="22.539"/>
	<path clip-path="url(#SVGID_2_)" fill="#43566B" d="M548.467,250.031h-24.477c-0.692,0-1.252-0.559-1.252-1.252V226.24
		c0-0.691,0.56-1.253,1.252-1.253h24.477c0.692,0,1.253,0.562,1.253,1.253v22.539C549.72,249.472,549.16,250.031,548.467,250.031
		 M525.244,247.526h21.971v-20.033h-21.971V247.526z"/>
	<rect x="261.446" y="119.187" clip-path="url(#SVGID_2_)" fill="#1C88C0" width="158.221" height="104.426"/>
	<rect x="254.718" y="112.227" clip-path="url(#SVGID_2_)" fill="#1C88C0" width="174.05" height="120.053"/>
	<path clip-path="url(#SVGID_2_)" fill="#1C88C0" d="M430.022,233.533H253.465V110.974h176.557V233.533z M255.972,231.028h171.545
		V113.479H255.972V231.028z"/>
	<rect x="254.718" y="112.227" clip-path="url(#SVGID_2_)" fill="#FFFFFF" width="174.05" height="120.053"/>
	<path clip-path="url(#SVGID_2_)" fill="#1C88C0" d="M430.022,233.533H253.465V110.974h176.557V233.533z M255.972,231.028h171.545
		V113.479H255.972V231.028z"/>
	<rect x="262.448" y="119.956" clip-path="url(#SVGID_2_)" fill="#9ECEE5" width="158.593" height="104.596"/>
	<rect x="262.447" y="129.924" clip-path="url(#SVGID_2_)" fill="#1C88C0" width="158.594" height="2.506"/>
	<path clip-path="url(#SVGID_2_)" fill="#1C88C0" d="M310.516,126.91h-4.064v-2.506h4.064V126.91z M305.197,126.91h-5.01v-2.506
		h5.01V126.91z M298.935,126.91h-5.01v-2.506h5.01V126.91z M292.671,126.91h-5.01v-2.506h5.01V126.91z M286.409,126.91h-5.011
		v-2.506h5.011V126.91z M280.146,126.91h-5.011v-2.506h5.011V126.91z M273.882,126.91h-5.011v-2.506h5.011V126.91z"/>
	<path clip-path="url(#SVGID_2_)" fill="#1C88C0" d="M413.766,126.91h-4.063v-2.506h4.063V126.91z M408.449,126.91h-5.011v-2.506
		h5.011V126.91z M402.186,126.91h-5.011v-2.506h5.011V126.91z M395.922,126.91h-5.011v-2.506h5.011V126.91z M389.66,126.91h-5.011
		v-2.506h5.011V126.91z M383.397,126.91h-5.011v-2.506h5.011V126.91z M377.133,126.91h-5.011v-2.506h5.011V126.91z"/>
	<polygon clip-path="url(#SVGID_2_)" fill="#FFFFFF" points="364.861,254.194 321.424,254.194 328.382,232.042 357.903,232.042 	"/>
	<path clip-path="url(#SVGID_2_)" fill="#1C88C0" d="M366.568,255.447h-46.85l7.745-24.659h31.36L366.568,255.447z M323.131,252.941
		h40.024l-6.171-19.646h-27.682L323.131,252.941z"/>
	<rect x="313.75" y="254.194" clip-path="url(#SVGID_2_)" fill="#FFFFFF" width="58.785" height="7.393"/>
	<path clip-path="url(#SVGID_2_)" fill="#1C88C0" d="M373.788,262.838h-61.29v-9.896h61.29V262.838z M315.003,260.333h56.279v-4.887
		h-56.279V260.333z"/>
	<path clip-path="url(#SVGID_2_)" fill="#D9D9E2" d="M632.168,223.491c-12.579,0-22.812-10.232-22.812-22.813
		c0-12.578,10.232-22.812,22.812-22.812s22.813,10.233,22.813,22.812C654.981,213.258,644.748,223.491,632.168,223.491"/>
	<path clip-path="url(#SVGID_2_)" fill="#1C88C0" d="M632.168,224.743c-13.27,0-24.064-10.795-24.064-24.063
		c0-13.27,10.795-24.064,24.064-24.064s24.064,10.795,24.064,24.064C656.233,213.948,645.438,224.743,632.168,224.743
		 M632.168,179.12c-11.888,0-21.56,9.671-21.56,21.56c0,11.887,9.672,21.558,21.56,21.558s21.561-9.671,21.561-21.558
		C653.729,188.791,644.056,179.12,632.168,179.12"/>
	<path clip-path="url(#SVGID_2_)" fill="#1C88C0" d="M635.537,195.362c-0.979-0.897-1.797-1.398-3.065-1.398
		c-1.426,0-2.297,0.739-2.297,2.111c0,3.17,7.185,2.536,7.185,7.871c0,2.51-1.48,4.358-4.094,4.836v2.716h-2.113v-2.639
		c-1.612-0.158-3.382-0.896-4.571-2.006l1.375-2.062c1.242,0.978,2.483,1.636,3.909,1.636c1.717,0,2.562-0.844,2.562-2.27
		c0-3.485-7.184-2.983-7.184-7.95c0-2.457,1.532-4.199,3.909-4.622v-2.694h2.113v2.642c1.69,0.211,2.852,1.029,3.829,2.06
		L635.537,195.362z"/>
	<polygon clip-path="url(#SVGID_2_)" fill="#8E90A8" points="131.722,156.405 115.622,168.417 99.522,156.405 99.522,140.305 
		99.522,130.212 131.722,130.212 131.722,140.305 	"/>
	<path clip-path="url(#SVGID_2_)" fill="#1C88C0" d="M115.623,169.669c-0.263,0-0.527-0.083-0.749-0.248l-16.099-12.013
		c-0.317-0.236-0.504-0.608-0.504-1.004v-26.193c0-0.693,0.56-1.253,1.253-1.253h32.198c0.693,0,1.253,0.56,1.253,1.253v26.193
		c0,0.396-0.187,0.768-0.504,1.004l-16.099,12.013C116.149,169.586,115.885,169.669,115.623,169.669 M100.775,155.776l14.847,11.077
		l14.847-11.077v-24.312h-29.694V155.776z"/>
	<path clip-path="url(#SVGID_2_)" fill="#FFFFFF" d="M115.623,155.214c-0.59,0-1.167-0.208-1.624-0.597l-5.552-4.721
		c-1.053-0.897-1.181-2.479-0.285-3.532c0.897-1.053,2.476-1.184,3.532-0.285l3.257,2.77l5.302-9.233
		c0.691-1.199,2.22-1.611,3.42-0.924c1.2,0.688,1.614,2.22,0.925,3.42l-6.803,11.846c-0.37,0.646-1.009,1.092-1.743,1.221
		C115.909,155.203,115.766,155.214,115.623,155.214"/>
	<rect x="445.392" y="183.674" clip-path="url(#SVGID_2_)" fill="#1C88C0" width="112.248" height="77.912"/>
	<path clip-path="url(#SVGID_2_)" fill="#1C88C0" d="M558.892,262.838H444.14V182.42h114.752V262.838z M446.645,260.333h109.742
		v-75.407H446.645V260.333z"/>
	<rect x="461.239" y="199.52" clip-path="url(#SVGID_2_)" fill="#D9D9E2" width="80.555" height="46.22"/>
	<path clip-path="url(#SVGID_2_)" fill="#1C88C0" d="M543.045,246.993h-83.06v-48.726h83.06V246.993z M462.492,244.487h78.049
		v-43.714h-78.049V244.487z"/>
	<rect x="453.316" y="210.084" clip-path="url(#SVGID_2_)" fill="#9ECEE5" width="17.167" height="7.924"/>
	<path clip-path="url(#SVGID_2_)" fill="#1C88C0" d="M470.483,219.261h-17.167c-0.692,0-1.253-0.562-1.253-1.253v-7.924
		c0-0.692,0.561-1.253,1.253-1.253h17.167c0.692,0,1.253,0.561,1.253,1.253v7.924C471.736,218.7,471.175,219.261,470.483,219.261
		 M454.568,216.754h14.661v-5.418h-14.661V216.754z"/>
	<rect x="453.316" y="225.931" clip-path="url(#SVGID_2_)" fill="#9ECEE5" width="17.167" height="7.923"/>
	<path clip-path="url(#SVGID_2_)" fill="#1C88C0" d="M470.483,235.107h-17.167c-0.692,0-1.253-0.559-1.253-1.252v-7.923
		c0-0.693,0.561-1.252,1.253-1.252h17.167c0.692,0,1.253,0.559,1.253,1.252v7.923C471.736,234.548,471.175,235.107,470.483,235.107
		 M454.568,232.602h14.661v-5.418h-14.661V232.602z"/>
	<rect x="495.574" y="207.443" clip-path="url(#SVGID_2_)" fill="#9ECEE5" width="38.296" height="6.604"/>
	<rect x="495.575" y="219.396" clip-path="url(#SVGID_2_)" fill="#1C88C0" width="9.903" height="2.505"/>
	<rect x="510.099" y="219.396" clip-path="url(#SVGID_2_)" fill="#1C88C0" width="9.905" height="2.505"/>
	<rect x="524.625" y="219.396" clip-path="url(#SVGID_2_)" fill="#1C88C0" width="9.905" height="2.505"/>
	<rect x="495.575" y="226.66" clip-path="url(#SVGID_2_)" fill="#1C88C0" width="9.903" height="2.505"/>
	<rect x="510.099" y="226.66" clip-path="url(#SVGID_2_)" fill="#1C88C0" width="9.905" height="2.505"/>
	<rect x="524.625" y="226.66" clip-path="url(#SVGID_2_)" fill="#1C88C0" width="9.905" height="2.505"/>
	<rect x="495.575" y="233.923" clip-path="url(#SVGID_2_)" fill="#1C88C0" width="9.903" height="2.505"/>
	<rect x="510.099" y="233.923" clip-path="url(#SVGID_2_)" fill="#1C88C0" width="9.905" height="2.505"/>
	<rect x="524.625" y="233.923" clip-path="url(#SVGID_2_)" fill="#1C88C0" width="9.905" height="2.505"/>
	<polygon clip-path="url(#SVGID_2_)" fill="#1C88C0" points="413.339,109.288 413.334,88.453 453.144,88.453 453.144,52.069 
		455.65,52.069 455.65,90.958 415.839,90.958 415.844,109.288 	"/>
	<path clip-path="url(#SVGID_2_)" fill="#9ECEE5" d="M495.508,217.78c-2.029-1.385-49.593-34.577-39.414-90.293l1.717-9.397
		l9.126,1.574c0.161,0.016,0.643,0.057,1.343,0.057c4.276,0,10.093-1.27,13.522-7.321l2.772-4.893h32.751l2.772,4.893
		c3.43,6.051,9.246,7.321,13.522,7.321c0.7,0,1.183-0.041,1.343-0.057l9.359-1.612l1.483,9.435
		c10.179,55.716-37.384,88.908-39.414,90.293l-5.441,3.716L495.508,217.78z"/>
	<path clip-path="url(#SVGID_2_)" fill="#1C88C0" d="M500.951,222.748c-0.247,0-0.493-0.071-0.706-0.218l-5.442-3.715
		c-2.063-1.408-50.266-35.034-39.94-91.552l1.718-9.398c0.125-0.676,0.774-1.12,1.444-1.01l9.127,1.576
		c0.056,0.001,0.493,0.039,1.129,0.039c3.942,0,9.301-1.161,12.433-6.688l2.772-4.893c0.223-0.393,0.639-0.635,1.09-0.635h32.751
		c0.451,0,0.867,0.242,1.09,0.635l2.773,4.893c3.131,5.527,8.489,6.688,12.432,6.688c0.636,0,1.074-0.038,1.22-0.052l9.27-1.6
		c0.332-0.056,0.672,0.021,0.943,0.216c0.272,0.196,0.455,0.492,0.508,0.823l1.483,9.436c10.324,56.51-37.89,90.119-39.946,91.522
		l-5.441,3.715C501.444,222.676,501.198,222.748,500.951,222.748 M458.821,119.535l-1.495,8.178
		c-10.037,54.938,36.886,87.666,38.889,89.032l4.736,3.233l4.735-3.233c2.003-1.365,48.928-34.076,38.889-89.032l-1.292-8.21
		l-8.106,1.395c-0.264,0.031-0.79,0.076-1.556,0.076c-4.609,0-10.886-1.38-14.612-7.957l-2.413-4.258h-31.29l-2.413,4.258
		c-3.727,6.577-10.003,7.957-14.612,7.957c-0.766,0-1.29-0.045-1.466-0.063L458.821,119.535z"/>
	<path clip-path="url(#SVGID_2_)" fill="#F47E62" d="M500.95,203.544c-8.998-7.185-35.669-31.89-31.078-69.201
		c5.641-0.28,16.098-2.241,23.082-12.175h15.994c6.982,9.934,17.441,11.895,23.08,12.175
		C536.619,171.655,509.948,196.36,500.95,203.544"/>
	<path clip-path="url(#SVGID_2_)" fill="#1C88C0" d="M500.95,205.147l-0.782-0.624c-8.584-6.854-36.233-32.188-31.539-70.333
		l0.129-1.046l1.051-0.052c5.395-0.269,15.438-2.139,22.12-11.644l0.374-0.532h17.296l0.374,0.532
		c6.682,9.505,16.726,11.375,22.118,11.644l1.051,0.052l0.13,1.046c4.693,38.146-22.955,63.479-31.54,70.333L500.95,205.147z
		 M470.996,135.525c-3.8,35.206,20.943,59.007,29.954,66.407c9.011-7.4,33.753-31.201,29.954-66.407
		c-5.923-0.477-15.738-2.773-22.599-12.104h-14.71C486.735,132.752,476.918,135.048,470.996,135.525"/>
	<path clip-path="url(#SVGID_2_)" fill="#1C88C0" d="M499.438,213.104c-0.089-0.064-0.163-0.126-0.237-0.201
		c-0.089-0.038-0.177-0.088-0.265-0.138c-0.576-0.402-0.726-1.178-0.325-1.741c0.389-0.576,1.166-0.727,1.742-0.325
		c0.087,0.05,0.162,0.124,0.225,0.199c0.101,0.039,0.188,0.076,0.275,0.138c0.576,0.388,0.714,1.179,0.325,1.741
		c-0.237,0.364-0.626,0.552-1.026,0.552C499.901,213.329,499.651,213.253,499.438,213.104 M508.118,207.089
		c-0.462-0.513-0.413-1.303,0.101-1.765c0.514-0.464,1.303-0.414,1.767,0.101c0.463,0.513,0.413,1.302-0.101,1.765
		c-0.237,0.213-0.538,0.313-0.839,0.313C508.708,207.503,508.369,207.366,508.118,207.089 M490.105,205.438
		c-0.5-0.477-0.525-1.266-0.05-1.768c0.476-0.514,1.266-0.538,1.767-0.063c0.514,0.477,0.526,1.277,0.05,1.779
		c-0.237,0.25-0.576,0.388-0.901,0.388C490.657,205.775,490.356,205.662,490.105,205.438 M516.184,199.225
		c-0.513-0.465-0.551-1.268-0.087-1.779c0.451-0.513,1.252-0.551,1.767-0.089c0.514,0.464,0.552,1.253,0.088,1.767
		c-0.238,0.275-0.588,0.414-0.927,0.414C516.723,199.538,516.424,199.438,516.184,199.225 M482.24,197.183
		c-0.451-0.539-0.39-1.328,0.137-1.779c0.526-0.439,1.315-0.377,1.767,0.149c0.451,0.514,0.388,1.303-0.138,1.767
		c-0.239,0.201-0.526,0.301-0.813,0.301C482.84,197.621,482.49,197.47,482.24,197.183 M523.362,190.519
		c-0.563-0.402-0.7-1.179-0.299-1.742v-0.012c0.412-0.563,1.189-0.689,1.753-0.276c0.563,0.402,0.689,1.178,0.288,1.741
		c-0.238,0.338-0.627,0.525-1.015,0.525C523.839,190.755,523.577,190.682,523.362,190.519 M475.312,188.102v0.011
		c-0.389-0.576-0.238-1.353,0.338-1.741c0.575-0.388,1.354-0.237,1.741,0.326c0.389,0.576,0.238,1.354-0.338,1.741
		c-0.213,0.15-0.464,0.212-0.701,0.212C475.951,188.651,475.563,188.464,475.312,188.102 M529.475,181.062
		c-0.601-0.328-0.826-1.091-0.488-1.692c0.325-0.613,1.078-0.84,1.691-0.515c0.613,0.339,0.84,1.104,0.501,1.705
		c-0.226,0.414-0.663,0.651-1.103,0.651C529.876,181.211,529.675,181.162,529.475,181.062 M469.513,178.268
		c-0.313-0.615-0.076-1.377,0.55-1.691c0.614-0.301,1.365-0.062,1.679,0.551c0.313,0.626,0.063,1.378-0.551,1.691
		c-0.175,0.087-0.375,0.137-0.563,0.137C470.176,178.956,469.725,178.707,469.513,178.268 M534.348,170.902
		c-0.639-0.237-0.965-0.963-0.714-1.616c0.238-0.639,0.965-0.964,1.616-0.726c0.638,0.251,0.965,0.977,0.714,1.615
		c-0.188,0.501-0.664,0.814-1.164,0.814C534.649,170.99,534.499,170.964,534.348,170.902 M465.041,167.732
		c-0.225-0.65,0.125-1.365,0.777-1.589c0.65-0.227,1.364,0.125,1.59,0.775c0.227,0.651-0.125,1.365-0.775,1.591
		c-0.126,0.051-0.265,0.075-0.401,0.075C465.705,168.584,465.215,168.258,465.041,167.732 M537.766,160.167
		c-0.674-0.148-1.101-0.813-0.938-1.49c0.149-0.676,0.815-1.102,1.491-0.95c0.677,0.147,1.103,0.824,0.952,1.502
		c-0.138,0.575-0.651,0.977-1.228,0.977C537.956,160.205,537.868,160.192,537.766,160.167 M462.11,156.671
		c-0.126-0.677,0.313-1.327,0.989-1.465c0.688-0.125,1.341,0.326,1.466,1.003c0.125,0.676-0.313,1.339-1.002,1.465
		c-0.076,0.014-0.15,0.024-0.227,0.024C462.749,157.699,462.222,157.273,462.11,156.671 M539.583,149.058
		c-0.688-0.052-1.214-0.642-1.164-1.329c0.05-0.701,0.65-1.216,1.341-1.165c0.688,0.05,1.202,0.65,1.164,1.328
		c-0.05,0.663-0.602,1.177-1.252,1.177C539.646,149.069,539.61,149.058,539.583,149.058 M460.845,145.299
		c-0.026-0.69,0.512-1.277,1.202-1.304c0.688-0.025,1.265,0.513,1.289,1.215c0.026,0.689-0.513,1.267-1.202,1.291h-0.037
		C461.421,146.501,460.87,145.962,460.845,145.299 M538.37,136.644c-0.063-0.691,0.451-1.291,1.14-1.342
		c0.688-0.063,1.291,0.451,1.353,1.141c0.051,0.701-0.463,1.303-1.151,1.353h-0.101C538.971,137.795,538.419,137.307,538.37,136.644
		 M462.397,135.24c-0.688-0.075-1.188-0.702-1.102-1.39c0.075-0.689,0.702-1.177,1.378-1.103c0.689,0.075,1.176,0.701,1.103,1.392
		c-0.076,0.637-0.614,1.114-1.24,1.114C462.485,135.252,462.434,135.24,462.397,135.24 M467.421,128.289L467.421,128.289
		c-0.69-0.026-1.24-0.602-1.216-1.291c0.025-0.688,0.613-1.24,1.303-1.215s1.228,0.614,1.202,1.289
		c-0.024,0.691-0.576,1.217-1.253,1.217H467.421z M535.713,126.959c-0.101-0.688,0.389-1.314,1.065-1.415
		c0.689-0.088,1.315,0.401,1.415,1.077c0.087,0.69-0.389,1.316-1.077,1.416c-0.063,0-0.112,0.012-0.175,0.012
		C536.328,128.05,535.79,127.585,535.713,126.959 M525.429,127.072c-0.664-0.212-1.027-0.913-0.814-1.577
		c0.201-0.665,0.915-1.028,1.565-0.815c0.665,0.214,1.028,0.915,0.815,1.579c-0.163,0.526-0.664,0.878-1.19,0.878
		C525.68,127.123,525.554,127.11,525.429,127.072 M477.316,125.495c-0.287-0.639,0-1.378,0.627-1.654
		c0.638-0.287,1.378,0,1.653,0.626c0.275,0.627,0,1.379-0.626,1.654c-0.175,0.076-0.352,0.112-0.514,0.112
		C477.98,126.233,477.516,125.958,477.316,125.495 M515.509,120.685c-0.464-0.526-0.414-1.315,0.1-1.767
		c0.526-0.463,1.315-0.413,1.767,0.101c0.464,0.513,0.414,1.315-0.101,1.766c-0.238,0.213-0.538,0.314-0.826,0.314
		C516.097,121.099,515.759,120.959,515.509,120.685 M486.297,118.894c-0.563-0.389-0.713-1.178-0.313-1.742
		c0.401-0.564,1.179-0.713,1.741-0.313c0.577,0.401,0.714,1.178,0.314,1.742c-0.239,0.35-0.627,0.538-1.027,0.538
		C486.761,119.119,486.524,119.042,486.297,118.894 M506.602,114.834c0-0.688,0.552-1.252,1.253-1.252
		c0.689,0,1.253,0.564,1.253,1.252s-0.563,1.253-1.253,1.253C507.154,116.088,506.602,115.522,506.602,114.834 M495.329,114.834
		c0-0.688,0.552-1.252,1.253-1.252c0.689,0,1.24,0.564,1.24,1.252s-0.551,1.253-1.24,1.253
		C495.88,116.088,495.329,115.522,495.329,114.834"/>
	<path clip-path="url(#SVGID_2_)" fill="#FFFFFF" d="M498.339,181.473v-5.285c-6.192-0.961-9.288-4.697-9.502-9.929h7.1
		c0.48,3.149,2.402,4.964,5.606,4.964c3.683,0,5.071-1.708,5.071-4.324c0-2.722-1.389-4.11-6.514-5.979
		c-8.061-2.883-10.837-5.979-10.837-10.943c0-6.14,4.164-9.183,9.075-9.931v-4.109h6.353v4.217c5.553,0.962,8.382,4.324,8.702,9.449
		h-7.26c-0.16-2.082-1.282-4.645-4.966-4.645c-2.936-0.054-4.324,1.602-4.324,3.951c0,2.027,1.068,3.417,6.728,5.499
		c8.061,2.988,10.622,6.191,10.622,11.477c0,6.245-3.949,9.448-9.502,10.303v5.285H498.339z"/>
	<rect x="157.488" y="198.144" clip-path="url(#SVGID_2_)" fill="#FFFFFF" width="12.224" height="48.532"/>
	<path clip-path="url(#SVGID_2_)" fill="#1C88C0" d="M170.965,247.929h-14.729v-51.038h14.729V247.929z M158.742,245.424h9.719
		v-46.028h-9.719V245.424z"/>
	<rect x="150.201" y="238.562" clip-path="url(#SVGID_2_)" fill="#9ECEE5" width="26.8" height="8.114"/>
	<path clip-path="url(#SVGID_2_)" fill="#1C88C0" d="M178.253,247.929h-29.306v-10.62h29.306V247.929z M151.454,245.424h24.295
		v-5.61h-24.295V245.424z"/>
	<rect x="194.679" y="198.144" clip-path="url(#SVGID_2_)" fill="#FFFFFF" width="12.223" height="48.532"/>
	<path clip-path="url(#SVGID_2_)" fill="#1C88C0" d="M208.154,247.929h-14.729v-51.038h14.729V247.929z M195.931,245.424h9.719
		v-46.028h-9.719V245.424z"/>
	<rect x="187.391" y="238.562" clip-path="url(#SVGID_2_)" fill="#9ECEE5" width="26.799" height="8.114"/>
	<path clip-path="url(#SVGID_2_)" fill="#1C88C0" d="M215.443,247.929h-29.306v-10.62h29.306V247.929z M188.643,245.424h24.295
		v-5.61h-24.295V245.424z"/>
	<rect x="231.868" y="198.144" clip-path="url(#SVGID_2_)" fill="#FFFFFF" width="12.224" height="48.532"/>
	<path clip-path="url(#SVGID_2_)" fill="#1C88C0" d="M245.344,247.929h-14.729v-51.038h14.729V247.929z M233.121,245.424h9.719
		v-46.028h-9.719V245.424z"/>
	<rect x="224.58" y="238.562" clip-path="url(#SVGID_2_)" fill="#9ECEE5" width="26.8" height="8.114"/>
	<path clip-path="url(#SVGID_2_)" fill="#1C88C0" d="M252.632,247.929h-29.306v-10.62h29.306V247.929z M225.833,245.424h24.295
		v-5.61h-24.295V245.424z"/>
	<rect x="143.257" y="246.488" clip-path="url(#SVGID_2_)" fill="#FFFFFF" width="115.649" height="7.549"/>
	<path clip-path="url(#SVGID_2_)" fill="#1C88C0" d="M260.16,255.29H142.004v-10.055H260.16V255.29z M144.509,252.785h113.145
		v-5.045H144.509V252.785z"/>
	<rect x="137.328" y="254.037" clip-path="url(#SVGID_2_)" fill="#9ECEE5" width="127.509" height="7.55"/>
	<path clip-path="url(#SVGID_2_)" fill="#1C88C0" d="M266.088,262.838H136.074v-10.054h130.015V262.838z M138.58,260.333h125.004
		v-5.044H138.58V260.333z"/>
	<rect x="147.067" y="190.593" clip-path="url(#SVGID_2_)" fill="#9ECEE5" width="108.029" height="7.55"/>
	<path clip-path="url(#SVGID_2_)" fill="#1C88C0" d="M256.35,199.395H145.815v-10.054H256.35V199.395z M148.32,196.89h105.523
		v-5.044H148.32V196.89z"/>
	<polygon clip-path="url(#SVGID_2_)" fill="#9ECEE5" points="157.489,190.593 201.082,152.333 244.092,190.593 	"/>
	<path clip-path="url(#SVGID_2_)" fill="#1C88C0" d="M247.385,191.846h-93.223l46.926-41.184L247.385,191.846z M160.814,189.341
		h79.984l-39.722-35.336L160.814,189.341z"/>
	<path clip-path="url(#SVGID_2_)" fill="#43566B" d="M224.58,183.348c-0.296,0-0.593-0.104-0.832-0.314l-10.4-9.227
		c-0.518-0.459-0.564-1.25-0.105-1.769c0.458-0.519,1.25-0.564,1.769-0.105l10.4,9.227c0.518,0.459,0.564,1.25,0.105,1.768
		C225.27,183.207,224.925,183.348,224.58,183.348"/>
	<path clip-path="url(#SVGID_2_)" fill="#43566B" d="M188.764,172.716c-0.349,0-0.697-0.146-0.944-0.431
		c-0.455-0.521-0.4-1.313,0.122-1.767l12.855-11.194l9.191,8.152c0.517,0.458,0.564,1.25,0.105,1.769
		c-0.46,0.519-1.253,0.563-1.769,0.105l-7.541-6.691l-11.197,9.748C189.349,172.615,189.056,172.716,188.764,172.716"/>
	<path clip-path="url(#SVGID_2_)" fill="#43566B" d="M174.064,185.514c-0.349,0-0.697-0.146-0.944-0.431
		c-0.455-0.521-0.401-1.313,0.122-1.767l9.862-8.588c0.519-0.453,1.311-0.402,1.766,0.123c0.455,0.521,0.4,1.313-0.122,1.767
		l-9.862,8.587C174.648,185.413,174.356,185.514,174.064,185.514"/>
	<path clip-path="url(#SVGID_2_)" fill="#8E90A8" d="M172.714,147.957c9.069,0.825,13.295,0.637,17.6-6.96h21.537
		c4.274,7.543,10.014,7.826,17.753,6.937c5.321,33.841-5.945,52.607-28.522,68.022C178.378,200.454,166.808,180.276,172.714,147.957
		"/>
	<path clip-path="url(#SVGID_2_)" fill="#1C88C0" d="M201.082,217.473l-0.705-0.481c-25.203-17.209-34.385-39.218-28.895-69.261
		l0.205-1.127l1.141,0.104c9.022,0.821,12.527,0.501,16.396-6.33l0.36-0.635h22.997l0.36,0.635c3.715,6.556,8.285,7.255,16.52,6.309
		l1.194-0.138l0.187,1.188c4.918,31.278-3.771,51.989-29.054,69.254L201.082,217.473z M173.746,149.304
		c-4.892,28.47,3.573,48.627,27.336,65.131c23.825-16.526,31.838-35.515,27.465-65.129c-6.861,0.698-12.91,0.34-17.413-7.057h-20.1
		C186.566,149.692,181.653,149.977,173.746,149.304"/>
	<path clip-path="url(#SVGID_2_)" fill="#D9D9E2" d="M201.082,204.151c-5.917-4.725-23.456-20.971-20.437-45.506
		c3.709-0.184,10.586-1.474,15.179-8.007h10.517c4.593,6.533,11.47,7.823,15.178,8.007
		C224.538,183.18,206.999,199.426,201.082,204.151"/>
	<path clip-path="url(#SVGID_2_)" fill="#1C88C0" d="M201.082,205.754l-0.782-0.623c-5.689-4.544-24.012-21.334-20.898-46.64
		l0.129-1.046l1.052-0.053c3.468-0.172,9.926-1.373,14.215-7.475l0.374-0.532h11.82l0.374,0.532
		c4.289,6.102,10.748,7.303,14.216,7.475l1.051,0.053l0.129,1.046c3.113,25.303-15.209,42.095-20.898,46.64L201.082,205.754z
		 M181.774,159.818c-2.241,22.405,13.252,37.672,19.308,42.717c6.055-5.045,21.549-20.313,19.308-42.717
		c-3.963-0.378-10.22-1.982-14.686-7.927h-9.243C191.995,157.835,185.737,159.44,181.774,159.818"/>
	<path clip-path="url(#SVGID_2_)" fill="#1C88C0" d="M199.366,189.638v-3.476c-4.074-0.63-6.11-3.087-6.25-6.529h4.669
		c0.316,2.071,1.581,3.265,3.687,3.265c2.422,0,3.334-1.124,3.334-2.844c0-1.79-0.912-2.702-4.282-3.932
		c-5.302-1.896-7.127-3.933-7.127-7.197c0-4.036,2.738-6.038,5.969-6.529v-2.703h4.177v2.772c3.651,0.632,5.512,2.845,5.723,6.215
		h-4.775c-0.106-1.369-0.842-3.056-3.266-3.056c-1.93-0.034-2.843,1.054-2.843,2.599c0,1.334,0.702,2.247,4.424,3.617
		c5.301,1.965,6.985,4.072,6.985,7.548c0,4.107-2.597,6.214-6.248,6.774v3.476H199.366z"/>
	<path clip-path="url(#SVGID_2_)" fill="#71B7D9" d="M368.88,94.948h-7.681v-6.652c0-9.077-7.383-16.461-16.46-16.461h-3.292
		c-9.077,0-16.461,7.384-16.461,16.461v6.652h-7.681v-6.652c0-13.313,10.83-24.142,24.142-24.142h3.292
		c13.311,0,24.141,10.829,24.141,24.142V94.948z"/>
	<path clip-path="url(#SVGID_2_)" fill="#1C88C0" d="M370.134,96.201h-10.187v-7.906c0-8.385-6.823-15.207-15.208-15.207h-3.292
		c-8.385,0-15.207,6.822-15.207,15.207v7.906h-10.186v-7.906c0-14.002,11.391-25.394,25.393-25.394h3.292
		c14.003,0,25.395,11.392,25.395,25.394V96.201z M362.452,93.696h5.177v-5.401c0-12.62-10.268-22.889-22.89-22.889h-3.292
		c-12.62,0-22.889,10.269-22.889,22.889v5.401h5.176v-5.401c0-9.767,7.947-17.713,17.713-17.713h3.292
		c9.767,0,17.713,7.946,17.713,17.713V93.696z"/>
	<path clip-path="url(#SVGID_2_)" fill="#1C88C0" d="M371.527,145.974h-56.868c-3.69,0-6.681-2.991-6.681-6.681v-37.665
		c0-3.689,2.991-6.68,6.681-6.68h56.868c3.689,0,6.681,2.991,6.681,6.68v37.665C378.208,142.983,375.216,145.974,371.527,145.974"/>
	<path clip-path="url(#SVGID_2_)" fill="#1C88C0" d="M371.527,147.227h-56.868c-4.375,0-7.933-3.559-7.933-7.934v-37.665
		c0-4.375,3.558-7.933,7.933-7.933h56.868c4.375,0,7.934,3.558,7.934,7.933v37.665C379.46,143.668,375.902,147.227,371.527,147.227
		 M314.659,96.201c-2.994,0-5.428,2.435-5.428,5.428v37.665c0,2.994,2.434,5.428,5.428,5.428h56.868
		c2.993,0,5.429-2.434,5.429-5.428v-37.665c0-2.993-2.436-5.428-5.429-5.428H314.659z"/>
	<rect x="326.907" y="107.156" clip-path="url(#SVGID_2_)" fill="#FFFFFF" width="31.823" height="6.858"/>
	<path clip-path="url(#SVGID_2_)" fill="#FFFFFF" d="M358.73,115.266h-31.823c-0.693,0-1.253-0.559-1.253-1.252v-6.859
		c0-0.692,0.56-1.252,1.253-1.252h31.823c0.692,0,1.252,0.56,1.252,1.252v6.859C359.982,114.707,359.422,115.266,358.73,115.266
		 M328.16,112.762h29.318v-4.354H328.16V112.762z"/>
	<rect x="326.908" y="120.442" clip-path="url(#SVGID_2_)" fill="#FFFFFF" width="8.23" height="2.506"/>
	<rect x="338.979" y="120.442" clip-path="url(#SVGID_2_)" fill="#FFFFFF" width="8.23" height="2.506"/>
	<rect x="351.048" y="120.442" clip-path="url(#SVGID_2_)" fill="#FFFFFF" width="8.23" height="2.506"/>
	<rect x="326.908" y="126.478" clip-path="url(#SVGID_2_)" fill="#FFFFFF" width="8.23" height="2.505"/>
	<rect x="338.979" y="126.478" clip-path="url(#SVGID_2_)" fill="#FFFFFF" width="8.23" height="2.505"/>
	<rect x="351.048" y="126.478" clip-path="url(#SVGID_2_)" fill="#FFFFFF" width="8.23" height="2.505"/>
	<rect x="326.908" y="132.513" clip-path="url(#SVGID_2_)" fill="#FFFFFF" width="8.23" height="2.505"/>
	<rect x="338.979" y="132.513" clip-path="url(#SVGID_2_)" fill="#FFFFFF" width="8.23" height="2.505"/>
	<rect x="351.048" y="132.513" clip-path="url(#SVGID_2_)" fill="#FFFFFF" width="8.23" height="2.505"/>
	<path clip-path="url(#SVGID_2_)" fill="#71B7D9" d="M158.072,97.192h-60.59c-2.344-7.25-9.142-12.497-17.173-12.497
		c-9.969,0-18.051,8.082-18.051,18.052c0,9.969,8.082,18.051,18.051,18.051c8.031,0,14.829-5.247,17.173-12.497h9.211v-4.166h5.555
		v4.166h2.777l2.777-4.166h5.555v4.166h9.72v6.943h5.554v-6.943h5.555v11.109h5.554v-11.109h8.332V97.192z"/>
	<path clip-path="url(#SVGID_2_)" fill="#1C88C0" d="M80.309,122.051c-10.645,0-19.304-8.66-19.304-19.304
		c0-10.646,8.659-19.305,19.304-19.305c8.092,0,15.238,4.985,18.062,12.497h60.954v13.615h-8.332v11.109h-8.06v-11.109h-3.05v6.944
		h-8.059v-6.944h-9.721v-4.167h-3.63l-2.779,4.167h-4.699v-4.167h-3.05v4.167h-9.574C95.547,117.066,88.401,122.051,80.309,122.051
		 M80.309,85.947c-9.263,0-16.799,7.537-16.799,16.8c0,9.262,7.536,16.799,16.799,16.799c7.31,0,13.731-4.674,15.98-11.63
		l0.281-0.867h8.87v-4.166h8.06v4.166h0.853l2.779-4.166h7.476v4.166h9.722v6.943h3.048v-6.943h8.06v11.108h3.05v-11.108h8.331
		v-8.605H96.57l-0.281-0.867C94.04,90.622,87.618,85.947,80.309,85.947"/>
	<path clip-path="url(#SVGID_2_)" fill="#1C88C0" d="M76.837,99.833c-2.605,0-4.724-2.118-4.724-4.723
		c0-2.606,2.119-4.725,4.724-4.725s4.724,2.119,4.724,4.725C81.562,97.715,79.442,99.833,76.837,99.833 M76.837,92.89
		c-1.223,0-2.219,0.996-2.219,2.22c0,1.222,0.996,2.218,2.219,2.218s2.219-0.996,2.219-2.218
		C79.056,93.886,78.061,92.89,76.837,92.89"/>
	<path clip-path="url(#SVGID_2_)" fill="#71B7D9" d="M428.52,41.144l-0.027-0.106h49.76c10.701,0,16.361,7.273,18.974,17.65h-52.772
		C443.816,52.871,438.295,42.048,428.52,41.144"/>
	<path clip-path="url(#SVGID_2_)" fill="#1C88C0" d="M498.833,59.941h-55.503l-0.123-1.115c-0.563-5.142-5.634-15.586-14.803-16.434
		l-0.882-0.082l-0.64-2.524h51.368c10.289,0,17.082,6.256,20.189,18.597L498.833,59.941z M445.53,57.436h50.06
		c-2.967-10.187-8.649-15.146-17.338-15.146h-42.666C441.346,45.932,444.659,52.82,445.53,57.436"/>
	<path clip-path="url(#SVGID_2_)" fill="#B6DAE8" d="M430.876,43.354c-3.77,0-6.824,6.489-6.824,14.494s3.055,12.347,6.824,12.347
		h48.909V43.354H430.876z"/>
	<path clip-path="url(#SVGID_2_)" fill="#1C88C0" d="M481.039,71.447h-50.162c-3.727,0-8.077-3.562-8.077-13.599
		c0-8.829,3.547-15.746,8.077-15.746h50.162V71.447z M430.876,44.606c-2.636,0-5.572,5.438-5.572,13.241
		c0,6.635,2.239,11.094,5.572,11.094h47.657V44.606H430.876z"/>
	<path clip-path="url(#SVGID_2_)" fill="#71B7D9" d="M472.961,57.848c0-8.005,3.055-14.494,6.824-14.494
		c3.769,0,6.824,6.489,6.824,14.494c0,8.005-3.056,12.347-6.824,12.347C476.016,70.195,472.961,65.853,472.961,57.848"/>
	<path clip-path="url(#SVGID_2_)" fill="#1C88C0" d="M479.786,71.447c-3.726,0-8.077-3.562-8.077-13.599
		c0-8.829,3.548-15.746,8.077-15.746c4.53,0,8.077,6.917,8.077,15.746C487.863,67.885,483.512,71.447,479.786,71.447
		 M479.786,44.606c-2.635,0-5.571,5.438-5.571,13.241c0,6.635,2.239,11.094,5.571,11.094s5.572-4.459,5.572-11.094
		C485.358,50.044,482.42,44.606,479.786,44.606"/>
	<path clip-path="url(#SVGID_2_)" fill="#71B7D9" d="M479.786,66.782c-1.417,0-3.412-2.771-3.412-8.934
		c0-7.211,2.605-10.899,3.435-11.084c0.784,0.185,3.39,3.873,3.39,11.084C483.198,64.011,481.204,66.782,479.786,66.782"/>
	<path clip-path="url(#SVGID_2_)" fill="#1C88C0" d="M478.532,66.784c0-0.689,0.563-1.253,1.253-1.253
		c0.688,0,1.253,0.564,1.253,1.253c0,0.688-0.564,1.252-1.253,1.252C479.095,68.036,478.532,67.472,478.532,66.784 M481.964,64.93
		c-0.651-0.213-1.003-0.927-0.777-1.591c0.226-0.651,0.939-1.002,1.591-0.777c0.651,0.226,1.002,0.939,0.777,1.604
		c-0.177,0.514-0.665,0.839-1.179,0.839C482.24,65.005,482.102,64.98,481.964,64.93 M475.75,63.301
		c-0.175-0.663,0.214-1.352,0.889-1.528c0.665-0.187,1.354,0.213,1.529,0.877c0.188,0.677-0.214,1.365-0.877,1.541
		c-0.112,0.025-0.227,0.037-0.325,0.037C476.415,64.229,475.901,63.865,475.75,63.301 M483.129,60.083
		c-0.69-0.026-1.229-0.613-1.203-1.302c0.024-0.689,0.601-1.228,1.303-1.203c0.689,0.024,1.228,0.601,1.203,1.303
		c-0.026,0.663-0.59,1.202-1.253,1.202H483.129z M475.125,58.027c-0.013-0.688,0.551-1.264,1.24-1.264
		c0.688,0,1.252,0.564,1.265,1.252c0,0.689-0.564,1.253-1.253,1.253S475.125,58.717,475.125,58.027 M481.664,54.02
		c-0.101-0.676,0.362-1.315,1.052-1.427c0.677-0.1,1.315,0.363,1.428,1.052c0.101,0.676-0.363,1.315-1.052,1.428
		c-0.063,0.012-0.126,0.012-0.188,0.012C482.29,55.084,481.763,54.646,481.664,54.02 M476.565,54.271
		c-0.677-0.137-1.128-0.789-0.989-1.465c0.124-0.69,0.789-1.128,1.465-1.003c0.677,0.138,1.128,0.79,0.99,1.466
		c-0.113,0.601-0.639,1.014-1.229,1.014C476.728,54.282,476.653,54.282,476.565,54.271 M480.385,49.561L480.385,49.561
		c-0.301-0.627-0.024-1.365,0.602-1.666c0.627-0.288,1.378-0.025,1.665,0.614c0.301,0.614,0.025,1.365-0.601,1.653
		c-0.175,0.088-0.351,0.125-0.526,0.125C481.049,50.286,480.598,50.023,480.385,49.561 M477.818,49.41
		c-0.614-0.351-0.814-1.115-0.476-1.716c0.35-0.589,1.114-0.802,1.702-0.464c0.602,0.338,0.814,1.115,0.476,1.703
		c-0.237,0.414-0.65,0.64-1.088,0.64C478.219,49.573,478.004,49.522,477.818,49.41"/>
	<path clip-path="url(#SVGID_2_)" fill="#71B7D9" d="M480.186,41.144l0.026-0.106h-49.759c-10.701,0-15.732,7.273-18.345,17.65
		h56.871C469.618,52.871,470.41,42.048,480.186,41.144"/>
	<path clip-path="url(#SVGID_2_)" fill="#1C88C0" d="M470.103,59.941h-59.602l0.393-1.558c3.151-12.514,9.549-18.597,19.559-18.597
		h51.369l-0.612,2.418l-0.908,0.188c-7.75,0.716-9.192,8.185-10.006,15.773L470.103,59.941z M413.742,57.436h54.112
		c0.487-4.491,1.376-11.468,5.972-15.146h-43.373C421.928,42.29,416.728,46.978,413.742,57.436"/>
	<rect x="288.419" y="164.81" clip-path="url(#SVGID_2_)" fill="#FFFFFF" width="109.348" height="13.905"/>
	<path clip-path="url(#SVGID_2_)" fill="#1C88C0" d="M399.02,179.968H287.167v-16.411H399.02V179.968z M289.672,177.462h106.842
		v-11.4H289.672V177.462z"/>
	<rect x="288.419" y="189.938" clip-path="url(#SVGID_2_)" fill="#FFFFFF" width="109.348" height="13.906"/>
	<path clip-path="url(#SVGID_2_)" fill="#1C88C0" d="M399.02,205.097H287.167v-16.412H399.02V205.097z M289.672,202.591h106.842
		v-11.4H289.672V202.591z"/>
	<path clip-path="url(#SVGID_2_)" fill="#F47E62" d="M76.018,62.71c6.466,0,11.707,4.572,11.707,10.212
		c0-5.64,5.241-10.212,11.707-10.212c6.465,0,11.707,4.572,11.707,10.212c0-5.64,5.241-10.212,11.707-10.212
		c6.465,0,11.706,4.572,11.706,10.212c0-5.64,5.242-10.212,11.707-10.212c6.466,0,11.707,4.572,11.707,10.212
		c0-5.64,5.241-10.212,11.707-10.212c6.466,0,11.707,4.572,11.707,10.212c0-5.64,5.241-10.212,11.707-10.212
		c6.465,0,11.706,4.572,11.706,10.212c0-5.64,5.242-10.212,11.707-10.212c4.704,0,8.731,2.434,10.592,5.923
		c-6.338-33.961-39.715-59.878-79.99-59.878c-39.109,0-71.713,24.442-79.371,56.955C69.851,63.857,72.78,62.71,76.018,62.71"/>
	<path clip-path="url(#SVGID_2_)" fill="#FFFFFF" d="M86.503,41.462c-0.142,0-0.285-0.048-0.402-0.146
		c-0.265-0.223-0.3-0.618-0.077-0.883c9.867-11.752,24.015-20.488,39.84-24.599c0.337-0.092,0.678,0.113,0.765,0.448
		s-0.115,0.677-0.449,0.764c-15.576,4.046-29.497,12.639-39.197,24.192C86.859,41.386,86.683,41.462,86.503,41.462"/>
	<path clip-path="url(#SVGID_2_)" fill="#1C88C0" d="M227.412,46.25c-0.438,0-0.864-0.23-1.094-0.639
		c-14.944-26.588-45.299-43.105-79.215-43.105c-32.899,0-62.907,15.988-78.313,41.724c-0.356,0.594-1.123,0.786-1.719,0.432
		c-0.593-0.356-0.786-1.125-0.431-1.719C82.495,16.456,113.328,0,147.103,0c34.821,0,66.012,17.007,81.4,44.383
		c0.339,0.603,0.125,1.367-0.478,1.706C227.83,46.198,227.62,46.25,227.412,46.25"/>
	<path clip-path="url(#SVGID_2_)" fill="#FFFFFF" d="M195.547,118.81c-6.907,0-12.526-5.619-12.526-12.526
		c0-6.907,5.619-12.527,12.526-12.527c6.908,0,12.526,5.62,12.526,12.527C208.073,113.191,202.456,118.81,195.547,118.81"/>
	<path clip-path="url(#SVGID_2_)" fill="#F47E62" d="M195.548,120.063c-7.598,0-13.779-6.182-13.779-13.78
		c0-7.597,6.181-13.778,13.779-13.778s13.779,6.181,13.779,13.778C209.327,113.881,203.146,120.063,195.548,120.063 M195.548,95.01
		c-6.216,0-11.273,5.058-11.273,11.273c0,6.217,5.057,11.275,11.273,11.275c6.217,0,11.274-5.058,11.274-11.275
		C206.822,100.068,201.765,95.01,195.548,95.01"/>
	<path clip-path="url(#SVGID_2_)" fill="#F47E62" d="M197.396,103.365c-0.536-0.494-0.986-0.77-1.683-0.77
		c-0.783,0-1.261,0.408-1.261,1.161c0,1.741,3.945,1.392,3.945,4.322c0,1.378-0.813,2.393-2.248,2.655v1.492h-1.16v-1.449
		c-0.885-0.087-1.857-0.492-2.51-1.101l0.754-1.133c0.683,0.537,1.364,0.898,2.147,0.898c0.943,0,1.407-0.463,1.407-1.246
		c0-1.914-3.945-1.639-3.945-4.365c0-1.35,0.841-2.307,2.147-2.539v-1.479h1.16v1.45c0.928,0.117,1.566,0.566,2.103,1.132
		L197.396,103.365z"/>
	<path clip-path="url(#SVGID_2_)" fill="#F47E62" d="M688.047,110.402c-0.089-0.046-0.198-0.012-0.244,0.076l-1.896,3.578
		l-3.262,3.071l-5.62,1.032c-0.358-0.624-0.787-1.199-1.276-1.72l6.869-5.083l0.128-0.094l0.061-0.144
		c0.39-0.941,0.742-1.893,1.092-2.847c0.181-0.475,0.338-0.959,0.508-1.438l0.5-1.442l0.021-0.066l0.004-0.043l0.075-1.038
		c0.022-0.346,0.06-0.692,0.068-1.038c0.033-0.695,0.063-1.389,0.055-2.088c-0.001-0.08-0.055-0.154-0.138-0.175
		c-0.1-0.025-0.196,0.032-0.222,0.131c-0.177,0.677-0.318,1.357-0.452,2.039c-0.074,0.34-0.123,0.684-0.186,1.025l-0.161,0.95
		l-0.536,1.389c-0.182,0.475-0.376,0.945-0.543,1.425c-0.332,0.902-0.656,1.807-0.953,2.72l-7.589,4.599
		c-0.046-0.032-0.089-0.069-0.135-0.101c0-0.032,0.009-0.062,0.009-0.094c0-1.234-0.45-2.353-1.171-3.243l4.283-2.998l0.157-0.112
		l0.052-0.143l2.101-5.725l0.045-0.125l-0.019-0.111l-0.924-4.983c-0.024-0.135-0.147-0.232-0.288-0.218
		c-0.146,0.013-0.255,0.143-0.24,0.29l0.466,4.913l-1.993,5.439l-5.109,2.524c0.023-0.108,0.064-0.209,0.064-0.324v-1.395
		c0-0.55-0.306-1.01-0.741-1.277c0.005-0.169,0.009-0.342-0.001-0.52c-0.011-0.216-0.039-0.434-0.079-0.636
		c-0.04-0.202-0.101-0.386-0.166-0.538c-0.031-0.076-0.074-0.14-0.104-0.2c-0.031-0.058-0.068-0.104-0.1-0.141
		c-0.058-0.075-0.094-0.116-0.094-0.116l-0.105,0.078c0,0,0.02,0.045,0.055,0.125c0.019,0.037,0.039,0.083,0.053,0.141
		c0.014,0.06,0.034,0.119,0.045,0.192c0.047,0.284,0.021,0.675-0.062,1.057c-0.023,0.117-0.057,0.227-0.088,0.34
		c-0.046-0.005-0.085-0.027-0.132-0.027h-2.158c-0.048,0-0.088,0.023-0.134,0.027c-0.031-0.112-0.065-0.223-0.09-0.34
		c-0.083-0.382-0.107-0.773-0.057-1.057c0.008-0.073,0.03-0.132,0.043-0.192c0.011-0.058,0.033-0.104,0.05-0.141
		c0.037-0.08,0.057-0.125,0.057-0.125l-0.106-0.078c0,0-0.032,0.041-0.092,0.116c-0.032,0.037-0.071,0.082-0.1,0.141
		c-0.029,0.06-0.075,0.124-0.104,0.2c-0.068,0.152-0.128,0.336-0.167,0.538c-0.042,0.202-0.068,0.42-0.08,0.636
		c-0.01,0.178-0.006,0.352-0.001,0.521c-0.436,0.267-0.742,0.726-0.742,1.276v1.296l-5.043-2.572l-1.995-5.448l0.383-4.919
		c0.007-0.09-0.055-0.173-0.146-0.192c-0.1-0.02-0.193,0.043-0.213,0.142l-1.007,4.971l-0.022,0.109l0.047,0.129l2.098,5.725
		l0.054,0.147l0.159,0.107l4.577,3.115c-0.829,0.854-1.349,1.994-1.434,3.255l-6.697-4.058c-0.297-0.913-0.62-1.818-0.95-2.72
		c-0.169-0.48-0.36-0.95-0.543-1.425l-0.536-1.389l-0.164-0.95c-0.061-0.341-0.111-0.685-0.184-1.025
		c-0.136-0.682-0.274-1.362-0.451-2.039c-0.021-0.078-0.091-0.135-0.175-0.138c-0.102-0.001-0.185,0.081-0.185,0.182
		c-0.008,0.699,0.018,1.393,0.054,2.088c0.009,0.346,0.044,0.692,0.066,1.038l0.077,1.038l0.002,0.043l0.024,0.066l0.5,1.442
		c0.168,0.479,0.327,0.963,0.506,1.438c0.351,0.954,0.703,1.906,1.094,2.847l0.058,0.144l0.128,0.094l6.27,4.638
		c-0.772,0.716-1.422,1.557-1.912,2.499l-3.254-0.154l-3.644-2.606l-2.356-3.289c-0.05-0.072-0.149-0.098-0.231-0.055
		c-0.088,0.045-0.123,0.155-0.079,0.244l1.901,3.711l0.039,0.077l0.094,0.067l3.824,2.733l0.094,0.069l0.144,0.02l2.933,0.44
		c-0.235,0.686-0.396,1.406-0.463,2.155l-3.652,1.069l-0.204,0.059l-0.098,0.148l-3.536,5.287l-0.054,0.079l-0.015,0.076
		l-1.947,9.075c-0.02,0.094,0.035,0.187,0.126,0.212c0.097,0.028,0.197-0.028,0.226-0.126l2.521-8.831l3.375-5.05l3.249-0.514
		c0.336,4.776,4.308,8.551,9.171,8.551c4.789,0,8.723-3.662,9.159-8.337l1.893,0.3l3.377,5.05l2.521,8.831
		c0.025,0.094,0.12,0.149,0.214,0.129c0.097-0.021,0.159-0.117,0.138-0.215l-1.946-9.075l-0.017-0.076l-0.052-0.079l-3.538-5.287
		l-0.097-0.148l-0.205-0.059l-2.266-0.663c-0.043-0.949-0.229-1.858-0.538-2.711l5.297-1.541l0.138-0.04l0.086-0.08l3.422-3.222
		l0.083-0.079l0.029-0.081l1.385-3.932C688.164,110.541,688.127,110.446,688.047,110.402"/>
	<polygon clip-path="url(#SVGID_2_)" fill="#00A0D8" points="630.524,87.561 628.586,85.973 641.959,69.65 651.513,78.299 
		665.055,61.522 674.327,69.258 686.877,51.372 688.927,52.81 674.813,72.928 665.406,65.077 651.795,81.935 642.228,73.273 	"/>
	<path clip-path="url(#SVGID_2_)" fill="#00A0D8" d="M692.244,45.902c-0.963,3.67-1.654,8.577-1.272,12.187l-3.639-5.186
		l-6.114-1.657C684.743,50.377,689.122,48.058,692.244,45.902"/>
</g>
</svg>
