<?xml version="1.0" standalone="no"?>
<!DOCTYPE svg PUBLIC "-//W3C//DTD SVG 20010904//EN"
 "http://www.w3.org/TR/2001/REC-SVG-20010904/DTD/svg10.dtd">
<svg version="1.0" xmlns="http://www.w3.org/2000/svg"
 width="1024.000000pt" height="1024.000000pt" viewBox="0 0 1024.000000 1024.000000"
 preserveAspectRatio="xMidYMid meet">
<metadata>
Created by potrace 1.11, written by Peter Selinger 2001-2013
</metadata>
<g transform="translate(0.000000,1024.000000) scale(0.100000,-0.100000)"
fill="#000000" stroke="none">
<path d="M5025 10036 c-16 -8 -44 -27 -61 -42 -18 -16 -74 -67 -125 -114 -51
-47 -669 -659 -1374 -1362 -3415 -3404 -3281 -3270 -3306 -3323 -30 -62 -32
-153 -5 -205 10 -19 139 -154 286 -300 148 -146 652 -645 1120 -1110 469 -465
995 -987 1170 -1160 175 -173 737 -731 1249 -1239 512 -508 945 -934 963 -946
67 -45 158 -58 229 -33 67 23 150 97 520 467 365 364 2505 2494 3741 3723 468
465 612 613 627 647 25 58 20 129 -13 185 -21 35 -533 547 -1584 1584 -116
114 -529 523 -918 909 -390 385 -815 806 -944 933 -129 128 -490 485 -803 794
-352 349 -583 569 -610 583 -48 26 -116 29 -162 9z"/>
</g>
</svg>
